<svg width="422" height="511" viewBox="0 0 422 511" fill="none" xmlns="http://www.w3.org/2000/svg">
<path d="M40.582 430.473L36.8654 412.776C30.2757 409.405 23.5337 406.484 16.6716 404.029L16.2024 412.254L14.2999 403.193C5.78966 400.256 0 398.964 0 398.964C0 398.964 7.8185 434.866 24.2226 462.314L43.3349 466.367L28.4871 468.952C30.5506 471.949 32.7681 474.787 35.1266 477.448C58.9872 504.187 85.5639 516.456 94.4867 504.849C103.409 493.243 91.2998 462.16 67.4392 435.424C60.0422 427.134 50.7501 420.482 41.4483 415.246L40.582 430.473Z" fill="#F2F2F2"/>
<path d="M75.9274 411.251L80.3227 393.783C76.1256 386.784 71.6048 380.077 66.782 373.693L62.8591 380.441L65.1095 371.497C59.0807 363.675 54.678 358.956 54.678 358.956C54.678 358.956 46.0012 394.57 48.2901 428.302L62.9158 443.699L49.0963 436.646C49.5798 440.5 50.2637 444.314 51.1438 448.065C60.1215 485.845 77.6197 512.932 90.2267 508.565C102.834 504.198 105.776 470.032 96.7988 432.252C94.0159 420.54 88.9089 409.046 83.1884 398.76L75.9274 411.251Z" fill="#F2F2F2"/>
<path d="M294.469 121.056H292.151V44.3799C292.151 38.5519 291.2 32.7809 289.353 27.3965C287.506 22.012 284.798 17.1196 281.384 12.9986C277.971 8.87752 273.918 5.60852 269.458 3.37822C264.999 1.14792 260.218 0 255.391 0H120.829C111.08 0 101.73 4.67573 94.8361 12.9986C87.9423 21.3214 84.0693 32.6096 84.0693 44.3799V465.039C84.0693 470.867 85.0202 476.638 86.8675 482.023C88.7149 487.407 91.4226 492.3 94.8361 496.421C98.2496 500.542 102.302 503.811 106.762 506.041C111.222 508.271 116.002 509.419 120.829 509.419H255.391C265.14 509.419 274.49 504.743 281.384 496.42C288.278 488.098 292.15 476.81 292.15 465.039V175.636H294.469L294.469 121.056Z" fill="#E6E6E6"/>
<path d="M256.874 11.5417H239.311C240.119 13.9327 240.427 16.5269 240.209 19.0956C239.99 21.6643 239.252 24.1288 238.059 26.2719C236.866 28.4151 235.254 30.171 233.367 31.3851C231.479 32.5992 229.373 33.2342 227.234 33.2341H150.145C148.007 33.234 145.901 32.5988 144.013 31.3846C142.126 30.1704 140.514 28.4145 139.321 26.2714C138.128 24.1283 137.39 21.6639 137.172 19.0953C136.954 16.5266 137.262 13.9326 138.07 11.5417H121.664C114.384 11.5417 107.401 15.0335 102.253 21.249C97.1047 27.4644 94.2124 35.8943 94.2124 44.6842V464.733C94.2124 473.523 97.1047 481.953 102.253 488.168C107.401 494.384 114.384 497.875 121.664 497.875H256.874C264.155 497.875 271.138 494.384 276.286 488.168C281.434 481.953 284.326 473.523 284.326 464.733V44.6836C284.326 35.8937 281.434 27.464 276.286 21.2487C271.137 15.0334 264.155 11.5417 256.874 11.5417Z" fill="white"/>
<path d="M172.04 178.868C172.04 175.932 172.68 173.047 173.896 170.505C175.113 167.962 176.862 165.851 178.969 164.385C176.863 162.917 174.474 162.143 172.043 162.143C169.611 162.143 167.222 162.915 165.116 164.383C163.01 165.851 161.261 167.962 160.045 170.504C158.829 173.047 158.189 175.931 158.189 178.867C158.189 181.803 158.829 184.687 160.045 187.229C161.261 189.772 163.01 191.883 165.116 193.351C167.222 194.818 169.611 195.591 172.043 195.591C174.474 195.59 176.863 194.817 178.969 193.349C176.862 191.882 175.113 189.772 173.896 187.23C172.68 184.688 172.04 181.804 172.04 178.868Z" fill="#CCCCCC"/>
<path d="M189.454 178.868C189.454 175.932 190.094 173.047 191.31 170.505C192.527 167.962 194.276 165.851 196.383 164.385C194.278 162.917 191.889 162.143 189.457 162.143C187.025 162.143 184.636 162.915 182.53 164.383C180.424 165.851 178.675 167.962 177.459 170.504C176.243 173.047 175.603 175.931 175.603 178.867C175.603 181.803 176.243 184.687 177.459 187.229C178.675 189.772 180.424 191.883 182.53 193.351C184.636 194.818 187.025 195.591 189.457 195.591C191.889 195.59 194.278 194.817 196.383 193.349C194.277 191.882 192.527 189.772 191.311 187.23C190.094 184.688 189.454 181.804 189.454 178.868Z" fill="#CCCCCC"/>
<path d="M206.473 195.591C214.124 195.591 220.326 188.103 220.326 178.867C220.326 169.631 214.124 162.143 206.473 162.143C198.823 162.143 192.621 169.631 192.621 178.867C192.621 188.103 198.823 195.591 206.473 195.591Z" fill="#6C63FF"/>
<path d="M229.624 231.102H148.889C148.121 231.101 147.384 230.732 146.84 230.076C146.297 229.42 145.991 228.53 145.99 227.602V130.132C145.991 129.204 146.297 128.315 146.84 127.659C147.384 127.002 148.121 126.633 148.889 126.632H229.624C230.393 126.633 231.129 127.002 231.673 127.659C232.216 128.315 232.522 129.204 232.523 130.132V227.602C232.522 228.53 232.216 229.42 231.673 230.076C231.129 230.732 230.393 231.101 229.624 231.102ZM148.889 128.033C148.428 128.034 147.986 128.255 147.66 128.649C147.334 129.042 147.15 129.576 147.15 130.133V227.603C147.15 228.16 147.334 228.693 147.66 229.087C147.986 229.481 148.428 229.702 148.889 229.703H229.624C230.085 229.702 230.527 229.481 230.853 229.087C231.179 228.693 231.363 228.16 231.363 227.603V130.133C231.363 129.576 231.179 129.042 230.853 128.649C230.527 128.255 230.085 128.034 229.624 128.033H148.889Z" fill="#CCCCCC"/>
<path d="M247.651 305.817H123.828V307.217H247.651V305.817Z" fill="#CCCCCC"/>
<path d="M127.739 297.076C129.898 297.076 131.649 294.962 131.649 292.355C131.649 289.748 129.898 287.634 127.739 287.634C125.579 287.634 123.828 289.748 123.828 292.355C123.828 294.962 125.579 297.076 127.739 297.076Z" fill="#6C63FF"/>
<path d="M247.651 353.024H123.828V354.424H247.651V353.024Z" fill="#CCCCCC"/>
<path d="M127.739 344.283C129.898 344.283 131.649 342.17 131.649 339.562C131.649 336.955 129.898 334.841 127.739 334.841C125.579 334.841 123.828 336.955 123.828 339.562C123.828 342.17 125.579 344.283 127.739 344.283Z" fill="#6C63FF"/>
<path d="M245.385 406.781H206.253C205.577 406.781 204.929 406.456 204.451 405.879C203.973 405.302 203.705 404.519 203.704 403.703V387.145C203.705 386.329 203.973 385.547 204.451 384.97C204.929 384.393 205.577 384.068 206.253 384.067H245.385C246.061 384.068 246.709 384.393 247.187 384.97C247.665 385.547 247.933 386.329 247.934 387.145V403.703C247.933 404.519 247.665 405.302 247.187 405.879C246.709 406.456 246.061 406.781 245.385 406.781Z" fill="#6C63FF"/>
<path d="M140.494 297.076C142.654 297.076 144.405 294.962 144.405 292.355C144.405 289.748 142.654 287.634 140.494 287.634C138.334 287.634 136.584 289.748 136.584 292.355C136.584 294.962 138.334 297.076 140.494 297.076Z" fill="#6C63FF"/>
<path d="M153.249 297.076C155.409 297.076 157.16 294.962 157.16 292.355C157.16 289.748 155.409 287.634 153.249 287.634C151.09 287.634 149.339 289.748 149.339 292.355C149.339 294.962 151.09 297.076 153.249 297.076Z" fill="#6C63FF"/>
<path d="M140.494 344.283C142.654 344.283 144.405 342.17 144.405 339.562C144.405 336.955 142.654 334.841 140.494 334.841C138.334 334.841 136.584 336.955 136.584 339.562C136.584 342.17 138.334 344.283 140.494 344.283Z" fill="#6C63FF"/>
<path d="M153.249 344.283C155.409 344.283 157.16 342.17 157.16 339.562C157.16 336.955 155.409 334.841 153.249 334.841C151.09 334.841 149.339 336.955 149.339 339.562C149.339 342.17 151.09 344.283 153.249 344.283Z" fill="#6C63FF"/>
<path d="M420.424 511H13.6426C12.7718 511 12.0664 510.627 12.0664 510.167C12.0664 509.707 12.7718 509.333 13.6426 509.333H420.424C421.294 509.333 422 509.707 422 510.167C422 510.627 421.294 511 420.424 511Z" fill="#3F3D56"/>
<path d="M319.922 334.791C320.2 334.945 320.468 335.125 320.722 335.33L346.133 322.236L347.04 314.154L357.194 314.079L356.594 332.614L323.054 343.323C322.983 343.604 322.899 343.88 322.8 344.149C322.315 345.399 321.535 346.447 320.559 347.163C319.582 347.879 318.452 348.23 317.31 348.173C316.168 348.116 315.066 347.653 314.141 346.842C313.217 346.031 312.511 344.909 312.114 343.615C311.716 342.322 311.644 340.916 311.906 339.573C312.168 338.23 312.753 337.011 313.587 336.068C314.422 335.125 315.468 334.501 316.595 334.274C317.722 334.047 318.88 334.227 319.922 334.791Z" fill="#FFB8B8"/>
<path d="M360.886 502.754H353.94L350.636 470.409L360.888 470.409L360.886 502.754Z" fill="#FFB8B8"/>
<path d="M348.979 500.357H362.375V510.54H340.545C340.545 507.84 341.433 505.25 343.015 503.34C344.597 501.43 346.742 500.357 348.979 500.357Z" fill="#2F2E41"/>
<path d="M387.9 500.384L380.987 501.206L375.072 469.409L385.274 468.195L387.9 500.384Z" fill="#FFB8B8"/>
<path d="M375.856 499.409L389.187 497.824L390.013 507.957L368.289 510.541C368.18 509.21 368.29 507.866 368.611 506.587C368.933 505.307 369.46 504.116 370.163 503.083C370.865 502.049 371.73 501.193 372.706 500.562C373.683 499.932 374.753 499.54 375.856 499.409Z" fill="#2F2E41"/>
<path d="M362.82 279.848C370.505 279.848 376.735 272.326 376.735 263.048C376.735 253.77 370.505 246.248 362.82 246.248C355.135 246.248 348.905 253.77 348.905 263.048C348.905 272.326 355.135 279.848 362.82 279.848Z" fill="#FFB8B8"/>
<path d="M352.388 496.213C351.791 496.214 351.213 495.962 350.755 495.499C350.298 495.036 349.99 494.393 349.887 493.684C346.292 469.589 334.54 390.807 334.259 388.624C334.253 388.574 334.25 388.524 334.25 388.473V382.599C334.25 382.385 334.305 382.176 334.408 382.002L335.961 379.377C336.035 379.251 336.131 379.147 336.244 379.072C336.356 378.998 336.481 378.956 336.609 378.95C345.459 378.449 374.446 376.98 375.846 379.093C377.253 381.215 376.756 387.647 376.642 388.915L376.647 389.047L389.67 489.592C389.772 490.394 389.608 491.212 389.214 491.869C388.82 492.526 388.228 492.97 387.565 493.104L379.431 494.722C378.826 494.839 378.205 494.69 377.683 494.302C377.16 493.914 376.77 493.312 376.584 492.606C374.068 482.901 365.633 450.254 362.71 437.622C362.691 437.542 362.65 437.473 362.592 437.427C362.535 437.382 362.465 437.363 362.397 437.374C362.329 437.386 362.267 437.427 362.222 437.49C362.178 437.553 362.153 437.634 362.154 437.717C362.3 449.759 362.653 480.483 362.775 491.094L362.788 492.237C362.794 493.011 362.558 493.759 362.129 494.333C361.7 494.908 361.107 495.267 360.469 495.34L352.626 496.2C352.546 496.209 352.467 496.213 352.388 496.213Z" fill="#2F2E41"/>
<path d="M353.989 286.454C351.56 288.196 350.107 291.399 349.273 294.658C347.729 300.692 346.8 306.93 346.506 313.235L345.625 332.114L334.716 382.162C344.171 391.82 349.625 389.625 362.353 381.725C375.08 373.825 376.535 384.359 376.535 384.359L379.08 341.774L382.716 295.24C381.9 294.054 380.976 292.981 379.962 292.043C376.601 288.888 372.69 286.695 368.525 285.629C364.36 284.563 360.048 284.653 355.916 285.89L353.989 286.454Z" fill="#6C63FF"/>
<path d="M350.445 344.899C350.738 345.032 351.023 345.193 351.295 345.38L376.421 330.198L376.838 321.972L387.203 321.109L387.758 339.86L354.181 353.266C353.906 354.685 353.281 355.971 352.387 356.951C351.493 357.931 350.373 358.559 349.176 358.752C347.979 358.944 346.762 358.693 345.686 358.03C344.611 357.367 343.728 356.325 343.155 355.042C342.582 353.759 342.346 352.295 342.479 350.846C342.612 349.397 343.107 348.031 343.898 346.93C344.689 345.829 345.74 345.045 346.909 344.682C348.079 344.319 349.312 344.395 350.445 344.899Z" fill="#FFB8B8"/>
<path d="M382.534 295.453C388.716 298.088 389.805 326.626 389.805 326.626C382.533 321.797 373.805 329.699 373.805 329.699C373.805 329.699 371.987 322.236 369.805 312.577C369.146 309.86 369.067 306.987 369.576 304.223C370.084 301.46 371.164 298.897 372.714 296.772C372.714 296.772 376.352 292.818 382.534 295.453Z" fill="#6C63FF"/>
<path d="M375.297 267.491C373.563 265.816 371.198 268.86 371.198 268.86L369.811 253.789C369.811 253.789 361.142 255.043 355.594 253.371C350.046 251.699 349.179 259.441 349.179 259.441C348.893 256.314 348.835 253.162 349.006 250.022C349.352 246.254 353.86 242.487 361.835 239.975C369.811 237.463 373.972 248.347 373.972 248.347C379.52 251.696 377.031 269.166 375.297 267.491Z" fill="#2F2E41"/>
</svg>
