<svg width="468" height="466" viewBox="0 0 468 466" fill="none" xmlns="http://www.w3.org/2000/svg">
<g clip-path="url(#clip0)">
<path d="M407.727 449.136V402.956C407.727 402.956 423.604 435.696 407.727 449.136Z" fill="#F1F1F1"/>
<path d="M408.707 449.128L378.696 417.898C378.696 417.898 410.71 426.781 408.707 449.128Z" fill="#F1F1F1"/>
<path d="M59.9553 449.136V402.956C59.9553 402.956 44.0784 435.696 59.9553 449.136Z" fill="#F1F1F1"/>
<path d="M58.9746 449.128L88.9861 417.898C88.9861 417.898 56.9722 426.781 58.9746 449.128Z" fill="#F1F1F1"/>
<path d="M332.7 106.638H330.525V39.0931C330.525 33.9593 329.633 28.8758 327.9 24.1328C326.166 19.3898 323.626 15.0802 320.423 11.4501C317.221 7.81998 313.419 4.94041 309.235 2.97579C305.05 1.01118 300.565 4.19165e-06 296.036 0H169.789C165.26 -1.0898e-05 160.775 1.01115 156.59 2.97575C152.406 4.94035 148.604 7.81991 145.402 11.45C142.199 15.0801 139.659 19.3897 137.925 24.1327C136.192 28.8757 135.3 33.9592 135.3 39.093V409.649C135.3 420.017 138.934 429.96 145.401 437.292C151.869 444.623 160.642 448.742 169.789 448.742H296.036C305.183 448.742 313.955 444.623 320.423 437.292C326.891 429.96 330.525 420.017 330.525 409.649V154.717H332.7V106.638Z" fill="#3F3D56"/>
<path d="M297.428 10.1707H280.948C281.706 12.2767 281.995 14.5617 281.791 16.8244C281.586 19.087 280.893 21.2578 279.774 23.1456C278.655 25.0335 277.143 26.5803 275.372 27.6499C273.601 28.7195 271.626 29.279 269.619 29.2792H197.293C195.287 29.279 193.311 28.7195 191.54 27.6499C189.769 26.5803 188.258 25.0335 187.138 23.1457C186.019 21.2578 185.326 19.087 185.122 16.8244C184.917 14.5617 185.206 12.2767 185.964 10.1707H170.572C163.741 10.1706 157.19 13.2465 152.36 18.7214C147.53 24.1964 144.817 31.6221 144.817 39.3649V409.377C144.817 413.211 145.483 417.007 146.777 420.549C148.071 424.091 149.969 427.309 152.36 430.02C154.752 432.731 157.591 434.882 160.716 436.349C163.841 437.816 167.19 438.571 170.572 438.571H297.428C300.81 438.571 304.159 437.816 307.284 436.349C310.409 434.882 313.248 432.731 315.64 430.02C318.031 427.309 319.929 424.091 321.223 420.549C322.517 417.007 323.183 413.211 323.183 409.377V39.3649C323.183 35.5311 322.517 31.7348 321.223 28.1927C319.929 24.6507 318.031 21.4324 315.64 18.7214C313.248 16.0105 310.409 13.8601 307.284 12.3929C304.159 10.9258 300.81 10.1707 297.428 10.1707Z" fill="white"/>
<path d="M294.25 432.218H173.75C159.904 432.218 148.64 420.822 148.64 406.814V388.422C148.64 377.257 157.611 368.174 168.637 368.174H299.363C310.389 368.174 319.36 377.257 319.36 388.422V406.814C319.36 420.822 308.096 432.218 294.25 432.218Z" fill="#E5E5E5"/>
<path d="M186.417 123.106H159.538C159.056 123.105 158.595 122.888 158.254 122.502C157.914 122.116 157.722 121.593 157.722 121.047V90.5794C157.722 90.0336 157.914 89.5103 158.254 89.1244C158.595 88.7385 159.056 88.5214 159.538 88.5208H186.417C186.898 88.5214 187.36 88.7385 187.7 89.1244C188.041 89.5103 188.232 90.0336 188.233 90.5794V121.047C188.232 121.593 188.041 122.116 187.7 122.502C187.36 122.888 186.898 123.105 186.417 123.106Z" fill="#6C63FF"/>
<path d="M227.099 123.106H200.22C199.738 123.105 199.276 122.888 198.936 122.502C198.596 122.116 198.404 121.593 198.403 121.047V90.5794C198.404 90.0336 198.596 89.5103 198.936 89.1244C199.276 88.7385 199.738 88.5214 200.22 88.5208H227.099C227.58 88.5214 228.042 88.7385 228.382 89.1244C228.723 89.5103 228.914 90.0336 228.915 90.5794V121.047C228.914 121.593 228.723 122.116 228.382 122.502C228.042 122.888 227.58 123.105 227.099 123.106Z" fill="#E5E5E5"/>
<path d="M267.78 123.106H240.901C240.42 123.105 239.958 122.888 239.618 122.502C239.277 122.116 239.086 121.593 239.085 121.047V90.5794C239.086 90.0336 239.277 89.5103 239.618 89.1244C239.958 88.7385 240.42 88.5214 240.901 88.5208H267.78C268.262 88.5214 268.723 88.7385 269.064 89.1244C269.404 89.5103 269.596 90.0336 269.597 90.5794V121.047C269.596 121.593 269.404 122.116 269.064 122.502C268.723 122.888 268.262 123.105 267.78 123.106Z" fill="#E5E5E5"/>
<path d="M308.462 123.106H281.583C281.102 123.105 280.64 122.888 280.3 122.502C279.959 122.116 279.768 121.593 279.767 121.047V90.5794C279.768 90.0336 279.959 89.5103 280.3 89.1244C280.64 88.7385 281.102 88.5214 281.583 88.5208H308.462C308.944 88.5214 309.405 88.7385 309.746 89.1244C310.086 89.5103 310.278 90.0336 310.278 90.5794V121.047C310.278 121.593 310.086 122.116 309.746 122.502C309.405 122.888 308.944 123.105 308.462 123.106Z" fill="#E5E5E5"/>
<path d="M186.321 179.512H159.442C158.96 179.511 158.499 179.294 158.158 178.908C157.818 178.522 157.626 177.999 157.625 177.453V146.986C157.626 146.44 157.818 145.917 158.158 145.531C158.499 145.145 158.96 144.928 159.442 144.927H186.321C186.802 144.928 187.264 145.145 187.604 145.531C187.945 145.917 188.136 146.44 188.137 146.986V177.453C188.136 177.999 187.945 178.522 187.604 178.908C187.264 179.294 186.802 179.511 186.321 179.512Z" fill="#E5E5E5"/>
<path d="M227.003 179.512H200.124C199.642 179.511 199.18 179.294 198.84 178.908C198.499 178.522 198.308 177.999 198.307 177.453V146.986C198.308 146.44 198.499 145.917 198.84 145.531C199.18 145.145 199.642 144.928 200.124 144.927H227.003C227.484 144.928 227.946 145.145 228.286 145.531C228.627 145.917 228.818 146.44 228.819 146.986V177.453C228.818 177.999 228.627 178.522 228.286 178.908C227.946 179.294 227.484 179.511 227.003 179.512Z" fill="#E5E5E5"/>
<path d="M267.684 179.512H240.805C240.324 179.511 239.862 179.294 239.522 178.908C239.181 178.522 238.99 177.999 238.989 177.453V146.986C238.99 146.44 239.181 145.917 239.522 145.531C239.862 145.145 240.324 144.928 240.805 144.927H267.684C268.166 144.928 268.627 145.145 268.968 145.531C269.308 145.917 269.5 146.44 269.5 146.986V177.453C269.5 177.999 269.308 178.522 268.968 178.908C268.627 179.294 268.166 179.511 267.684 179.512Z" fill="#6C63FF"/>
<path d="M308.366 179.512H281.487C281.006 179.511 280.544 179.294 280.203 178.908C279.863 178.522 279.671 177.999 279.671 177.453V146.986C279.671 146.44 279.863 145.917 280.203 145.531C280.544 145.145 281.006 144.928 281.487 144.927H308.366C308.848 144.928 309.309 145.145 309.65 145.531C309.99 145.917 310.182 146.44 310.182 146.986V177.453C310.182 177.999 309.99 178.522 309.65 178.908C309.309 179.294 308.848 179.511 308.366 179.512Z" fill="#6C63FF"/>
<path d="M186.225 235.918H159.346C158.864 235.917 158.402 235.7 158.062 235.314C157.722 234.928 157.53 234.405 157.529 233.859V203.392C157.53 202.846 157.722 202.323 158.062 201.937C158.402 201.551 158.864 201.334 159.346 201.333H186.225C186.706 201.334 187.168 201.551 187.508 201.937C187.849 202.323 188.04 202.846 188.041 203.392V233.859C188.04 234.405 187.849 234.928 187.508 235.314C187.168 235.7 186.706 235.917 186.225 235.918Z" fill="#E5E5E5"/>
<path d="M226.906 235.918H200.027C199.546 235.917 199.084 235.7 198.744 235.314C198.403 234.928 198.212 234.405 198.211 233.859V203.392C198.212 202.846 198.403 202.323 198.744 201.937C199.084 201.551 199.546 201.334 200.027 201.333H226.906C227.388 201.334 227.849 201.551 228.19 201.937C228.53 202.323 228.722 202.846 228.723 203.392V233.859C228.722 234.405 228.53 234.928 228.19 235.314C227.849 235.7 227.388 235.917 226.906 235.918Z" fill="#E5E5E5"/>
<path d="M267.588 235.918H240.709C240.228 235.917 239.766 235.7 239.425 235.314C239.085 234.928 238.894 234.405 238.893 233.859V203.392C238.894 202.846 239.085 202.323 239.425 201.937C239.766 201.551 240.228 201.334 240.709 201.333H267.588C268.07 201.334 268.531 201.551 268.872 201.937C269.212 202.323 269.404 202.846 269.404 203.392V233.859C269.404 234.405 269.212 234.928 268.872 235.314C268.531 235.7 268.07 235.917 267.588 235.918Z" fill="#E5E5E5"/>
<path d="M308.27 235.918H281.391C280.909 235.917 280.448 235.7 280.107 235.314C279.767 234.928 279.575 234.405 279.575 233.859V203.392C279.575 202.846 279.767 202.323 280.107 201.937C280.448 201.551 280.909 201.334 281.391 201.333H308.27C308.751 201.334 309.213 201.551 309.553 201.937C309.894 202.323 310.085 202.846 310.086 203.392V233.859C310.085 234.405 309.894 234.928 309.553 235.314C309.213 235.7 308.751 235.917 308.27 235.918Z" fill="#E5E5E5"/>
<path d="M186.128 292.324H159.249C158.768 292.324 158.306 292.106 157.966 291.721C157.625 291.335 157.434 290.811 157.433 290.266V259.798C157.434 259.252 157.625 258.729 157.966 258.343C158.306 257.957 158.768 257.74 159.249 257.739H186.128C186.61 257.74 187.072 257.957 187.412 258.343C187.752 258.729 187.944 259.252 187.945 259.798V290.266C187.944 290.811 187.752 291.335 187.412 291.721C187.072 292.106 186.61 292.324 186.128 292.324Z" fill="#E5E5E5"/>
<path d="M226.81 292.324H199.931C199.45 292.324 198.988 292.106 198.648 291.721C198.307 291.335 198.116 290.811 198.115 290.266V259.798C198.116 259.252 198.307 258.729 198.648 258.343C198.988 257.957 199.45 257.74 199.931 257.739H226.81C227.292 257.74 227.753 257.957 228.094 258.343C228.434 258.729 228.626 259.252 228.626 259.798V290.266C228.626 290.811 228.434 291.335 228.094 291.721C227.753 292.106 227.292 292.324 226.81 292.324Z" fill="#E5E5E5"/>
<path d="M267.492 292.324H240.613C240.132 292.324 239.67 292.106 239.329 291.721C238.989 291.335 238.797 290.811 238.797 290.266V259.798C238.797 259.252 238.989 258.729 239.329 258.343C239.67 257.957 240.132 257.74 240.613 257.739H267.492C267.974 257.74 268.435 257.957 268.776 258.343C269.116 258.729 269.308 259.252 269.308 259.798V290.266C269.308 290.811 269.116 291.335 268.776 291.721C268.435 292.106 267.974 292.324 267.492 292.324Z" fill="#E5E5E5"/>
<path d="M308.174 292.324H281.295C280.813 292.324 280.352 292.106 280.011 291.721C279.671 291.335 279.479 290.811 279.479 290.266V259.798C279.479 259.252 279.671 258.729 280.011 258.343C280.352 257.957 280.813 257.74 281.295 257.739H308.174C308.655 257.74 309.117 257.957 309.457 258.343C309.798 258.729 309.989 259.252 309.99 259.798V290.266C309.989 290.811 309.798 291.335 309.457 291.721C309.117 292.106 308.655 292.324 308.174 292.324Z" fill="#E5E5E5"/>
<path d="M186.417 418.312H159.538C159.056 418.311 158.595 418.094 158.254 417.708C157.914 417.322 157.722 416.799 157.722 416.253V385.786C157.722 385.24 157.914 384.717 158.254 384.331C158.595 383.945 159.056 383.728 159.538 383.727H186.417C186.898 383.728 187.36 383.945 187.7 384.331C188.041 384.717 188.232 385.24 188.233 385.786V416.253C188.232 416.799 188.041 417.322 187.7 417.708C187.36 418.094 186.898 418.311 186.417 418.312Z" fill="white"/>
<path d="M227.099 418.312H200.22C199.738 418.311 199.276 418.094 198.936 417.708C198.596 417.322 198.404 416.799 198.403 416.253V385.786C198.404 385.24 198.596 384.717 198.936 384.331C199.276 383.945 199.738 383.728 200.22 383.727H227.099C227.58 383.728 228.042 383.945 228.382 384.331C228.723 384.717 228.914 385.24 228.915 385.786V416.253C228.914 416.799 228.723 417.322 228.382 417.708C228.042 418.094 227.58 418.311 227.099 418.312Z" fill="white"/>
<path d="M267.78 418.312H240.901C240.42 418.311 239.958 418.094 239.618 417.708C239.277 417.322 239.086 416.799 239.085 416.253V385.786C239.086 385.24 239.277 384.717 239.618 384.331C239.958 383.945 240.42 383.728 240.901 383.727H267.78C268.262 383.728 268.723 383.945 269.064 384.331C269.404 384.717 269.596 385.24 269.597 385.786V416.253C269.596 416.799 269.404 417.322 269.064 417.708C268.723 418.094 268.262 418.311 267.78 418.312Z" fill="white"/>
<path d="M308.462 418.312H281.583C281.102 418.311 280.64 418.094 280.3 417.708C279.959 417.322 279.768 416.799 279.767 416.253V385.786C279.768 385.24 279.959 384.717 280.3 384.331C280.64 383.945 281.102 383.728 281.583 383.727H308.462C308.944 383.728 309.405 383.945 309.746 384.331C310.086 384.717 310.278 385.24 310.278 385.786V416.253C310.278 416.799 310.086 417.322 309.746 417.708C309.405 418.094 308.944 418.311 308.462 418.312Z" fill="white"/>
<path d="M220.828 354.083C222.834 354.083 224.46 352.239 224.46 349.966C224.46 347.692 222.834 345.848 220.828 345.848C218.822 345.848 217.195 347.692 217.195 349.966C217.195 352.239 218.822 354.083 220.828 354.083Z" fill="#E5E5E5"/>
<path d="M233.904 354.083C235.91 354.083 237.536 352.239 237.536 349.966C237.536 347.692 235.91 345.848 233.904 345.848C231.898 345.848 230.272 347.692 230.272 349.966C230.272 352.239 231.898 354.083 233.904 354.083Z" fill="#E5E5E5"/>
<path d="M246.98 354.083C248.986 354.083 250.613 352.239 250.613 349.966C250.613 347.692 248.986 345.848 246.98 345.848C244.974 345.848 243.348 347.692 243.348 349.966C243.348 352.239 244.974 354.083 246.98 354.083Z" fill="#E5E5E5"/>
<path d="M467.437 449.409H0.563177C0.413813 449.409 0.270566 449.342 0.16495 449.222C0.0593341 449.103 0 448.94 0 448.771C0 448.602 0.0593341 448.439 0.16495 448.32C0.270566 448.2 0.413813 448.133 0.563177 448.133H467.437C467.586 448.133 467.729 448.2 467.835 448.32C467.941 448.439 468 448.602 468 448.771C468 448.94 467.941 449.103 467.835 449.222C467.729 449.342 467.586 449.409 467.437 449.409Z" fill="#CBCBCB"/>
<path d="M183.801 323.716C184.561 322.855 185.145 321.816 185.512 320.672C185.879 319.527 186.02 318.305 185.926 317.092C185.831 315.879 185.503 314.704 184.965 313.65C184.427 312.596 183.691 311.689 182.81 310.992L189.903 282.503L176.97 287.165L172.217 313.504C171.282 315.26 170.949 317.343 171.279 319.359C171.609 321.375 172.579 323.184 174.007 324.442C175.435 325.701 177.221 326.322 179.026 326.189C180.831 326.055 182.53 325.175 183.801 323.716Z" fill="#FFB7B7"/>
<path d="M187.478 306.254C187.247 306.304 187.012 306.326 186.777 306.321L174.37 306.039C173.903 306.029 173.444 305.905 173.022 305.678C172.601 305.45 172.227 305.123 171.925 304.719C171.623 304.315 171.401 303.843 171.273 303.333C171.145 302.824 171.115 302.29 171.183 301.767L183.769 205.379C184.144 202.591 185.387 200.048 187.273 198.208C189.159 196.368 191.563 195.353 194.051 195.346C195.622 195.351 197.171 195.76 198.583 196.543C199.994 197.325 201.23 198.461 202.197 199.865C203.164 201.268 203.837 202.902 204.165 204.644C204.494 206.385 204.469 208.188 204.092 209.917L195.171 250.873L190.112 303.002C190.039 303.792 189.743 304.535 189.269 305.121C188.794 305.706 188.167 306.103 187.478 306.254Z" fill="#3F3D56"/>
<path d="M192.666 458.413H199.57L202.855 428.226L192.665 428.227L192.666 458.413Z" fill="#FFB7B7"/>
<path d="M190.905 455.859L204.502 455.858H204.503C206.801 455.858 209.005 456.893 210.63 458.735C212.255 460.577 213.168 463.075 213.168 465.68V465.999L190.905 466L190.905 455.859Z" fill="#2F2E41"/>
<path d="M222.107 455.872L228.968 456.744L235.201 427.16L225.074 425.873L222.107 455.872Z" fill="#FFB7B7"/>
<path d="M220.608 453.11L234.12 454.827L234.121 454.827C236.405 455.118 238.493 456.425 239.927 458.46C241.361 460.496 242.022 463.094 241.766 465.683L241.735 466L219.611 463.188L220.608 453.11Z" fill="#2F2E41"/>
<path d="M186.185 290.428C186.185 290.428 176.72 314.18 185.079 329.608L190.059 449.728H201.493L212.586 352.697L232.297 381.423L220.288 448.469L234.273 449.359L253.698 381.423C253.698 381.423 238.775 306.512 233.846 304.708L230.608 287.584L186.185 290.428Z" fill="#2F2E41"/>
<path d="M181.973 311.281C181.973 311.281 173.445 322.375 195.972 326.205C218.499 330.035 242.153 324.29 242.716 316.629C243.279 308.969 181.973 311.281 181.973 311.281Z" fill="#CBCBCB"/>
<path d="M294.899 173.669C294.864 174.752 294.62 175.813 294.184 176.778C293.749 177.742 293.132 178.587 292.377 179.252C291.622 179.916 290.747 180.386 289.815 180.626C288.883 180.867 287.916 180.872 286.981 180.643L278.466 194.562L269.742 190.76L282.01 171.295C282.454 169.541 283.45 168.033 284.809 167.056C286.168 166.079 287.796 165.7 289.385 165.993C290.974 166.286 292.413 167.229 293.429 168.644C294.445 170.058 294.968 171.847 294.899 173.669Z" fill="#FFB7B7"/>
<path d="M222.885 191.578L210.846 185.404L195.421 186.654C195.421 186.654 176.824 211.299 184.146 234.918L179.64 317.268C208.362 326.205 221.418 309.443 242.153 316.629L235.748 225.107L222.885 191.578Z" fill="#3F3D56"/>
<path d="M214.839 197.574L222.885 191.578C222.885 191.578 234.062 189.663 238.53 194.576C238.53 194.576 253.694 196.015 257.357 200.305L261.389 201.336L274.785 181.673L282.983 186.722L271.156 223.109L235.748 225.107L214.839 197.574Z" fill="#3F3D56"/>
<path d="M217.615 178.479C226.825 172.772 230.209 159.684 225.175 149.244C220.14 138.805 208.593 134.969 199.384 140.675C190.174 146.382 186.79 159.47 191.824 169.91C196.858 180.349 208.405 184.185 217.615 178.479Z" fill="#FFB7B7"/>
<path d="M192.062 142.735C195.454 135.82 199.693 131.342 206.672 131.503C213.652 131.665 219.689 131.352 222.829 138.419C223.659 136.658 224.075 134.684 224.036 132.687C224.984 133.385 225.732 134.382 226.186 135.556C226.64 136.729 226.782 138.028 226.593 139.291C227.203 138.885 227.715 138.313 228.08 137.625C228.444 136.937 228.651 136.157 228.681 135.355C231.01 136.234 231.616 139.955 230.437 142.396C229.258 144.837 226.947 146.248 224.729 147.441C222.511 148.635 223.535 154.946 222.087 157.192C221.076 158.76 220.614 160.682 219.933 162.464C219.905 162.535 219.856 162.592 219.795 162.627C218.234 163.614 217.248 165.378 217.524 167.38C217.556 167.53 217.549 167.688 217.501 167.833C215.525 172.055 213.391 176.472 209.807 178.991C206.932 180.959 203.488 181.562 200.223 180.67C196.56 179.677 193.394 176.925 191.111 173.53C188.828 170.136 187.359 166.124 186.255 162.042C185.276 158.422 184.564 154.551 185.341 150.868C186.117 147.185 188.746 143.774 192.077 143.49" fill="#2F2E41"/>
</g>
<defs>
<clipPath id="clip0">
<rect width="468" height="466" fill="white"/>
</clipPath>
</defs>
</svg>
